<?xml version="1.0" encoding="UTF-8"?> <svg xmlns="http://www.w3.org/2000/svg" viewBox="0 0 92.95 27.83"><defs><style>.cls-1{fill:#fff;}</style></defs><title>Recurso 2</title><g id="Capa_2" data-name="Capa 2"><g id="Capa_1-2" data-name="Capa 1"><g id="Capa_2-2" data-name="Capa 2"><g id="Capa_1-2-2" data-name="Capa 1-2"><path class="cls-1" d="M31.91,15.39H12.3a3.22,3.22,0,0,1,0-2.68H31.91a21.23,21.23,0,0,1,.28-2.23h-21a5.35,5.35,0,0,0,0,7.14h21a20.9,20.9,0,0,1-.28-2.23"></path><path class="cls-1" d="M35.25,25.22H6.09a17.87,17.87,0,0,1,0-22.34H35.25A22,22,0,0,1,37,.64H5.13a20.09,20.09,0,0,0,0,26.82H37.05a25.29,25.29,0,0,1-1.74-2.24"></path><path class="cls-1" d="M32.86,20.31H9.18a10.47,10.47,0,0,1,0-12.52H32.86c.26-.76.55-1.51.88-2.24H8.11a12.73,12.73,0,0,0,0,17H33.74a20.24,20.24,0,0,1-.88-2.23"></path><path class="cls-1" d="M46.8,25.52c-1.65-1.52-2.48-3.89-2.48-7.13V.64h4.32V18.05A6.19,6.19,0,0,0,50,22.5,7.72,7.72,0,0,0,55.15,24a6,6,0,0,0,4.49-1.45,6.06,6.06,0,0,0,1.42-4.45V.64h4.33V18.39q0,4.84-2.46,7.13c-1.63,1.52-4.23,2.3-7.78,2.3S48.45,27.05,46.8,25.52Z"></path><path class="cls-1" d="M74.08,26.09a10.39,10.39,0,0,1-4.28-4.93,17.33,17.33,0,0,1-1.3-7.25,18.13,18.13,0,0,1,1.3-7.28,10.74,10.74,0,0,1,4.31-4.9,13.33,13.33,0,0,1,7-1.72,14.34,14.34,0,0,1,4.77.75A10.47,10.47,0,0,1,89.68,3,9.31,9.31,0,0,1,92,6.17a11.14,11.14,0,0,1,.89,4.1H88.33a6.45,6.45,0,0,0-2-4.59A7.76,7.76,0,0,0,81,3.9,8.26,8.26,0,0,0,76.68,5,6.82,6.82,0,0,0,74,8a12.39,12.39,0,0,0-.72,2.6A19.46,19.46,0,0,0,73,13.92a22.28,22.28,0,0,0,.23,3.37,9.33,9.33,0,0,0,.74,2.6,6.68,6.68,0,0,0,2.68,3.05A8.24,8.24,0,0,0,81,24a9.29,9.29,0,0,0,3.09-.48,6.75,6.75,0,0,0,2.36-1.3,6.26,6.26,0,0,0,2-4.66H93a11,11,0,0,1-.87,4.07,9.47,9.47,0,0,1-2.27,3.23A10.63,10.63,0,0,1,86,27.07a15,15,0,0,1-4.84.75A13.61,13.61,0,0,1,74.08,26.09Z"></path></g></g></g></g></svg> 