<?xml version="1.0" encoding="UTF-8"?> <svg xmlns="http://www.w3.org/2000/svg" viewBox="0 0 71.67 21.43"><defs><style>.cls-1{fill:#090a0f;}</style></defs><title>Recurso 1</title><g id="Capa_2" data-name="Capa 2"><g id="Capa_1-2" data-name="Capa 1"><path class="cls-1" d="M24.64,11.85H9.53a2.42,2.42,0,0,1,0-2.06H24.64a15.85,15.85,0,0,1,.21-1.72H8.63a4.13,4.13,0,0,0,0,5.5H24.85a15.85,15.85,0,0,1-.21-1.72"></path><path class="cls-1" d="M27.21,19.43H4.74a13.78,13.78,0,0,1,0-17.22H27.21A17.22,17.22,0,0,1,28.55.49H4A15.48,15.48,0,0,0,4,21.15h24.6a17.22,17.22,0,0,1-1.34-1.72"></path><path class="cls-1" d="M25.37,15.64H7.12A8.06,8.06,0,0,1,7.12,6H25.37a17.25,17.25,0,0,1,.68-1.73H6.3a9.8,9.8,0,0,0,0,13.09H26.05a15,15,0,0,1-.68-1.72"></path><path class="cls-1" d="M36.11,19.66c-1.27-1.17-1.91-3-1.91-5.5V.49h3.33V13.9a4.75,4.75,0,0,0,1.08,3.43,5.92,5.92,0,0,0,3.93,1.12A4.62,4.62,0,0,0,46,17.33a4.67,4.67,0,0,0,1.1-3.43V.49h3.33V14.16c0,2.49-.63,4.33-1.89,5.5s-3.26,1.77-6,1.77S37.38,20.84,36.11,19.66Z"></path><path class="cls-1" d="M57.13,20.1a8.08,8.08,0,0,1-3.3-3.8,13.48,13.48,0,0,1-1-5.59,13.94,13.94,0,0,1,1-5.61,8.3,8.3,0,0,1,3.32-3.77A10.31,10.31,0,0,1,62.58,0a11,11,0,0,1,3.67.58,8,8,0,0,1,2.9,1.71,7.12,7.12,0,0,1,1.77,2.46,8.59,8.59,0,0,1,.69,3.16h-3.5a5,5,0,0,0-1.54-3.54A6,6,0,0,0,62.46,3a6.33,6.33,0,0,0-3.33.83,5.25,5.25,0,0,0-2.06,2.33,9.49,9.49,0,0,0-.56,2,15.11,15.11,0,0,0-.19,2.56,16.56,16.56,0,0,0,.18,2.6,7.17,7.17,0,0,0,.57,2,5.15,5.15,0,0,0,2.06,2.35,6.42,6.42,0,0,0,3.33.81,7.2,7.2,0,0,0,2.38-.37,5.28,5.28,0,0,0,1.82-1,4.84,4.84,0,0,0,1.51-3.59h3.5A8.43,8.43,0,0,1,71,16.65a7.24,7.24,0,0,1-1.75,2.49,8.12,8.12,0,0,1-2.93,1.71,11.44,11.44,0,0,1-3.73.58A10.49,10.49,0,0,1,57.13,20.1Z"></path></g></g></svg> 